<svg width="220" height="44" viewBox="0 0 220 44" fill="none" xmlns="http://www.w3.org/2000/svg">
<path d="M69.1215 36.3773C66.9024 36.3773 65.0283 35.678 63.4992 34.2794C61.9701 32.8809 60.8792 31.1466 60.2266 29.0767C59.5739 26.9882 59.2476 24.6945 59.2476 22.1957C59.2476 18.2424 60.096 14.8952 61.793 12.154C63.4899 9.39409 65.9328 8.01416 69.1215 8.01416C71.0982 8.01416 72.6646 8.44306 73.8207 9.30085C74.9582 10.1586 75.9186 11.3241 76.7018 12.7973L73.7368 14.5036C73.1587 13.4593 72.5154 12.6388 71.8068 12.0421C71.0982 11.4453 70.2031 11.147 69.1215 11.147C67.6297 11.147 66.3896 11.7344 65.4013 12.9092C64.3943 14.084 63.7044 15.4639 63.3314 17.049C62.9585 18.6154 62.772 20.331 62.772 22.1957C62.772 25.2913 63.3034 27.9113 64.3664 30.0557C65.4479 32.1816 67.033 33.2445 69.1215 33.2445C70.6506 33.2445 71.8627 32.6757 72.7578 31.5382C73.6343 30.4007 74.0725 28.8903 74.0725 27.0068V25.7202H69.1495V22.6153H77.5969V25.916C77.5969 29.1979 76.8044 31.762 75.2193 33.6081C73.6343 35.4543 71.6017 36.3773 69.1215 36.3773ZM92.0302 36.3773C89.4941 36.3773 87.6014 35.6501 86.352 34.1955C85.1212 32.741 84.5059 30.4007 84.5059 27.1747V15.8742H87.8625V27.5942C87.8625 29.5523 88.2727 30.9788 89.0932 31.8739C89.9137 32.7876 91.0232 33.2445 92.4218 33.2445C95.6852 33.2445 97.3168 31.3891 97.3168 27.6782V15.8742H100.701V35.9018H97.3168V33.9438C96.0488 35.5661 94.2866 36.3773 92.0302 36.3773ZM125.512 25.0209C125.512 25.8787 125.466 26.6059 125.372 27.2026H111.414C111.676 29.142 112.31 30.6525 113.317 31.734C114.305 32.8156 115.61 33.3564 117.233 33.3564C118.93 33.3564 120.487 32.7783 121.904 31.6221L123.778 33.8319C121.895 35.5288 119.675 36.3773 117.121 36.3773C114.324 36.3773 112.095 35.3797 110.435 33.3844C108.776 31.4077 107.946 28.8996 107.946 25.86C107.946 22.5967 108.776 20.0419 110.435 18.1958C112.095 16.3497 114.324 15.4266 117.121 15.4266C119.582 15.4266 121.596 16.2285 123.163 17.8322C124.729 19.4545 125.512 21.8508 125.512 25.0209ZM111.331 24.2936H122.184C122.128 22.1864 121.605 20.6759 120.617 19.7622C119.61 18.8485 118.445 18.3916 117.121 18.3916C115.349 18.3916 113.969 18.9137 112.981 19.958C112.011 21.0023 111.461 22.4475 111.331 24.2936ZM140.785 36.3773C139.311 36.3773 137.913 36.051 136.589 35.3983C135.284 34.7643 134.183 33.9158 133.288 32.8529L135.554 30.8389C137.158 32.5918 138.976 33.4683 141.008 33.4683C142.127 33.4683 143.05 33.2445 143.778 32.797C144.523 32.3308 144.896 31.6781 144.896 30.8389C144.896 30.3541 144.766 29.9159 144.505 29.5243C144.262 29.1327 143.852 28.7597 143.274 28.4054C142.677 28.0698 142.174 27.8087 141.764 27.6222C141.335 27.4171 140.682 27.1467 139.806 26.811C138.761 26.4008 137.932 26.0372 137.316 25.7202C136.701 25.4031 136.057 24.9929 135.386 24.4894C134.715 24.0046 134.23 23.4451 133.932 22.8111C133.633 22.1957 133.484 21.4685 133.484 20.6293C133.484 19.0629 134.146 17.8042 135.47 16.8532C136.794 15.9021 138.472 15.4266 140.505 15.4266C143.377 15.4266 145.708 16.4522 147.498 18.5035L145.288 20.3496C143.815 18.9883 142.193 18.3077 140.421 18.3077C139.246 18.3077 138.314 18.5221 137.624 18.951C136.934 19.3613 136.589 19.9207 136.589 20.6293C136.589 21.3752 136.943 21.9906 137.652 22.4755C138.379 22.9416 139.489 23.4638 140.98 24.0419C141.111 24.0792 141.214 24.1164 141.288 24.1537C142.202 24.5081 142.864 24.7784 143.274 24.9649C143.666 25.1327 144.234 25.4218 144.98 25.832C145.726 26.2423 146.267 26.6432 146.603 27.0348C146.938 27.4264 147.255 27.9486 147.554 28.6012C147.833 29.2352 147.973 29.9439 147.973 30.7271C147.973 32.4799 147.33 33.8599 146.043 34.8668C144.757 35.8738 143.004 36.3773 140.785 36.3773ZM164.896 36.3773C163.442 36.3773 162.052 36.051 160.728 35.3983C159.404 34.7643 158.304 33.9158 157.428 32.8529L159.693 30.8389C161.278 32.5918 163.087 33.4683 165.12 33.4683C166.257 33.4683 167.19 33.2445 167.917 32.797C168.644 32.3308 169.008 31.6781 169.008 30.8389C169.008 30.3541 168.887 29.9159 168.644 29.5243C168.383 29.1327 167.964 28.7597 167.386 28.4054C166.789 28.0698 166.285 27.8087 165.875 27.6222C165.465 27.4171 164.812 27.1467 163.917 26.811C162.873 26.4008 162.043 26.0372 161.428 25.7202C160.812 25.4031 160.178 24.9929 159.526 24.4894C158.854 24.0046 158.369 23.4451 158.071 22.8111C157.773 22.1957 157.624 21.4685 157.624 20.6293C157.624 19.0629 158.276 17.8042 159.582 16.8532C160.905 15.9021 162.584 15.4266 164.616 15.4266C167.488 15.4266 169.828 16.4522 171.637 18.5035L169.4 20.3496C167.945 18.9883 166.323 18.3077 164.532 18.3077C163.358 18.3077 162.425 18.5221 161.735 18.951C161.045 19.3613 160.7 19.9207 160.7 20.6293C160.7 21.3752 161.064 21.9906 161.791 22.4755C162.5 22.9416 163.6 23.4638 165.092 24.0419C165.222 24.0792 165.325 24.1164 165.4 24.1537C166.313 24.5081 166.975 24.7784 167.386 24.9649C167.796 25.1327 168.374 25.4218 169.12 25.832C169.847 26.2423 170.388 26.6432 170.742 27.0348C171.078 27.4264 171.386 27.9486 171.665 28.6012C171.964 29.2352 172.113 29.9439 172.113 30.7271C172.113 32.4799 171.46 33.8599 170.155 34.8668C168.868 35.8738 167.115 36.3773 164.896 36.3773ZM197.035 8.48968V11.5665H190.77V32.797H197.035V35.9018H181.148V32.797H187.413V11.5665H181.148V8.48968H197.035ZM215.021 36.3773C211.627 36.3773 209.93 34.699 209.93 31.3424V18.8671H205.343V15.8742H209.93V9.27288L213.259 7.62256V15.8742H220V18.8671H213.259V30.3075C213.259 31.2958 213.464 32.0417 213.874 32.5452C214.266 33.0487 215.03 33.3004 216.168 33.3004C217.38 33.3004 218.601 32.9368 219.832 32.2096L219.441 35.4543C218.303 36.0696 216.83 36.3773 215.021 36.3773Z" fill="black"/>
<path d="M16.2445 32.6243C16.2445 33.06 16.5964 33.4129 17.0321 33.4129H24.3512L16.7856 35.938C16.5868 36.0033 16.4221 36.1449 16.3277 36.3316C16.2333 36.5183 16.2168 36.7348 16.2819 36.9337C16.3482 37.1332 16.4909 37.2982 16.6787 37.3925C16.8665 37.4869 17.0841 37.5028 17.2837 37.4368L29.4634 33.374C29.6419 33.3154 29.7936 33.1949 29.8911 33.0343C29.9887 32.8737 30.0256 32.6835 29.9952 32.4981C29.9651 32.3132 29.8702 32.1451 29.7276 32.0237C29.5849 31.9023 29.4038 31.8355 29.2164 31.8353H17.0316C16.9281 31.8354 16.8256 31.8559 16.73 31.8956C16.6344 31.9353 16.5476 31.9934 16.4745 32.0667C16.4014 32.14 16.3435 32.2269 16.304 32.3226C16.2645 32.4183 16.2443 32.5208 16.2445 32.6243V32.6243ZM28.6545 40.1895C28.6411 40.2038 26.8134 41.9885 23.1266 41.9885C21.1379 41.9885 19.6922 41.4766 18.7821 40.997L29.4625 37.4368C29.6612 37.3699 29.8256 37.2273 29.9199 37.0399C30.0142 36.8525 30.0308 36.6356 29.9661 36.436C29.9333 36.3374 29.8813 36.2461 29.813 36.1676C29.7448 36.0891 29.6618 36.0249 29.5686 35.9786C29.4755 35.9323 29.3741 35.9049 29.2703 35.8979C29.1666 35.8909 29.0624 35.9045 28.9639 35.938L16.7851 39.9957C16.6568 40.0385 16.5414 40.1133 16.4501 40.2131C16.3587 40.3129 16.2943 40.4343 16.263 40.5659C16.1996 40.8328 16.2815 41.1131 16.4753 41.3059C16.5673 41.3979 18.7867 43.566 23.1261 43.566C27.4595 43.566 29.6803 41.3979 29.7728 41.3059C29.8463 41.2327 29.9047 41.1457 29.9445 41.0499C29.9843 40.9542 30.0048 40.8514 30.0048 40.7477C30.0048 40.644 29.9843 40.5413 29.9445 40.4455C29.9047 40.3497 29.8463 40.2627 29.7728 40.1895C29.6995 40.1159 29.6123 40.0575 29.5164 40.0177C29.4204 39.9779 29.3176 39.9574 29.2137 39.9574C29.1098 39.9574 29.0069 39.9779 28.911 40.0177C28.815 40.0575 28.7279 40.1159 28.6545 40.1895V40.1895ZM23.1266 1.38184C15.9716 1.38184 10.1537 7.20023 10.1537 14.3496C10.1537 17.9435 12.0878 20.8169 13.7911 23.3475C15.1063 25.296 16.2445 26.9798 16.2445 28.5661C16.2445 29.0013 16.5964 29.3542 17.0321 29.3542C17.4677 29.3542 17.8257 29.0013 17.8257 28.5661C17.8257 26.4961 16.4993 24.5366 15.1017 22.4619C13.4428 20.0048 11.7307 17.4653 11.7307 14.3496C11.7307 8.07154 16.8434 2.95888 23.127 2.95888C29.4061 2.95888 34.5178 8.072 34.5178 14.3496C34.5178 17.4653 32.8006 20.0043 31.1468 22.4619C29.7487 24.5366 28.4284 26.4965 28.4284 28.5661C28.4354 28.7706 28.5215 28.9643 28.6686 29.1065C28.8158 29.2486 29.0123 29.3281 29.2169 29.3281C29.4215 29.3281 29.6181 29.2486 29.7652 29.1065C29.9123 28.9643 29.9984 28.7706 30.0054 28.5661C30.0054 26.9798 31.1417 25.296 32.457 23.3475C34.1603 20.8169 36.0948 17.944 36.0948 14.3496C36.0948 7.20023 30.275 1.38184 23.1266 1.38184V1.38184Z" fill="url(#paint0_linear)"/>
<path d="M23.9146 6.22805C23.9146 5.79286 23.5612 5.43953 23.1265 5.43953C18.2118 5.43953 14.2119 9.43994 14.2119 14.3491C14.2119 14.5589 14.2952 14.76 14.4435 14.9083C14.5918 15.0566 14.7929 15.1399 15.0027 15.1399C15.2124 15.1399 15.4136 15.0566 15.5619 14.9083C15.7102 14.76 15.7935 14.5589 15.7935 14.3491C15.7935 10.3108 19.0826 7.0212 23.1265 7.0212C23.5612 7.0212 23.9146 6.66324 23.9146 6.22805V6.22805ZM9.51958 5.44462C9.66018 5.5459 9.82482 5.59446 9.98437 5.59446C10.2309 5.59446 10.4681 5.48347 10.6226 5.27027C10.7457 5.10091 10.7966 4.8896 10.7639 4.68277C10.7313 4.47595 10.6179 4.29053 10.4487 4.16726L5.51964 0.583082C5.43547 0.52238 5.34017 0.478856 5.23918 0.454998C5.13819 0.43114 5.03349 0.427415 4.93105 0.444036C4.82862 0.460657 4.73047 0.497298 4.6422 0.551866C4.55394 0.606434 4.47729 0.677859 4.41664 0.76206C4.29381 0.931557 4.24318 1.14284 4.27587 1.34959C4.30855 1.55635 4.42187 1.74172 4.59099 1.86506L9.51958 5.44462V5.44462ZM36.2636 5.59446C36.4241 5.59446 36.5882 5.5459 36.7293 5.44462L41.6574 1.86506C41.7413 1.80407 41.8123 1.72715 41.8664 1.63868C41.9206 1.55022 41.9567 1.45196 41.9728 1.34951C41.9889 1.24707 41.9847 1.14246 41.9603 1.04166C41.936 0.940857 41.892 0.845846 41.8309 0.76206C41.7702 0.677859 41.6936 0.606434 41.6053 0.551866C41.517 0.497298 41.4189 0.460657 41.3164 0.444036C41.214 0.427415 41.1093 0.43114 41.0083 0.454998C40.9073 0.478856 40.812 0.52238 40.7279 0.583082L35.7988 4.16726C35.6646 4.26557 35.5648 4.40377 35.5137 4.56213C35.4626 4.7205 35.4629 4.89094 35.5144 5.04916C35.5659 5.20737 35.6661 5.34528 35.8006 5.4432C35.9352 5.54112 36.0972 5.59406 36.2636 5.59446V5.59446ZM45.4599 13.5611H39.3691C38.9293 13.5611 38.5764 13.9139 38.5764 14.3491C38.5764 14.7899 38.9293 15.1427 39.3691 15.1427H45.4599C45.8942 15.1427 46.2475 14.7899 46.2475 14.3491C46.2475 13.9144 45.8942 13.5611 45.4599 13.5611ZM7.67246 14.3496C7.67246 13.9144 7.31913 13.5615 6.88348 13.5615H0.78852C0.579471 13.5615 0.378978 13.6445 0.231116 13.7923C0.0832527 13.9401 0.000122609 14.1405 0 14.3496C0 14.7903 0.353793 15.1432 0.78852 15.1432H6.88348C6.98741 15.1429 7.09027 15.1222 7.18619 15.0822C7.28211 15.0422 7.36919 14.9836 7.44247 14.9099C7.51574 14.8362 7.57377 14.7488 7.61324 14.6526C7.6527 14.5565 7.67282 14.4535 7.67246 14.3496V14.3496ZM36.7293 23.2596C36.6455 23.1985 36.5504 23.1545 36.4496 23.1302C36.3487 23.1058 36.2441 23.1015 36.1416 23.1176C36.0391 23.1337 35.9408 23.1698 35.8522 23.2239C35.7637 23.278 35.6867 23.349 35.6256 23.4328C35.5645 23.5167 35.5205 23.6117 35.4962 23.7126C35.4718 23.8134 35.4675 23.918 35.4836 24.0205C35.4997 24.123 35.5358 24.2213 35.5899 24.3099C35.644 24.3984 35.715 24.4754 35.7988 24.5365L40.7279 28.1161C40.8689 28.2183 41.0336 28.271 41.1926 28.271C41.3174 28.2704 41.4403 28.2403 41.5512 28.1832C41.6621 28.126 41.758 28.0434 41.8309 27.9422C41.8921 27.8585 41.9363 27.7635 41.9607 27.6626C41.9852 27.5618 41.9895 27.4571 41.9734 27.3546C41.9573 27.2521 41.9211 27.1538 41.8668 27.0654C41.8126 26.9769 41.7414 26.9 41.6574 26.8392L36.7293 23.2596V23.2596ZM9.51958 23.2596L4.59099 26.8392C4.50705 26.9001 4.43594 26.977 4.38174 27.0654C4.32754 27.1538 4.2913 27.2521 4.27511 27.3545C4.25892 27.457 4.26308 27.5616 4.28736 27.6624C4.31165 27.7633 4.35558 27.8583 4.41664 27.9422C4.57249 28.1549 4.81298 28.271 5.05485 28.271C5.21903 28.271 5.37905 28.2183 5.51964 28.1161L10.4487 24.5365C10.8016 24.2803 10.8788 23.7873 10.6226 23.434C10.5617 23.35 10.4848 23.2789 10.3964 23.2247C10.3079 23.1705 10.2097 23.1343 10.1072 23.1181C10.0048 23.1019 9.90016 23.1061 9.79932 23.1303C9.69848 23.1546 9.60343 23.1986 9.51958 23.2596Z" fill="url(#paint1_linear)"/>
<defs>
<linearGradient id="paint0_linear" x1="8.14342" y1="5.43819" x2="31.6541" y2="16.4014" gradientUnits="userSpaceOnUse">
<stop stop-color="#E90DDA"/>
<stop offset="1" stop-color="#15CFF1"/>
</linearGradient>
<linearGradient id="paint1_linear" x1="-0.658334" y1="0.287889" x2="41.2561" y2="19.8329" gradientUnits="userSpaceOnUse">
<stop stop-color="#E90DDA"/>
<stop offset="1" stop-color="#15CFF1"/>
</linearGradient>
</defs>
</svg>
